<svg width="2265" height="336" viewBox="0 0 2265 336" fill="none" xmlns="http://www.w3.org/2000/svg">
<path d="M1324.33 289.677H1379.41V142.214L1443.54 270.839L1461.66 270.478L1526.87 141.853V289.677H1581.94V32.4266H1525.79L1452.24 177.342L1380.13 32.4266H1324.33V289.677Z" fill="#00C975"/>
<path d="M1731.23 289.677H1907.31V240.034H1786.31V184.239H1878.34V136.037H1786.31V82.0701H1906.23V32.4266H1731.23V289.677Z" fill="#00C975"/>
<path d="M2050.43 289.677H2128.71C2209.5 289.677 2264.93 250.173 2264.93 159.611C2264.93 76.9745 2208.41 32.4266 2128.71 32.4266H2050.43V289.677ZM2105.52 238.232V83.8716H2128.71C2176.89 83.8716 2210.22 105.978 2210.22 159.611C2210.22 215.045 2178.72 238.232 2128.71 238.232H2105.52Z" fill="#00C975"/>
<path d="M102.603 293.666C153.688 293.666 198.236 266.489 197.875 213.217C197.875 158.504 157.677 135.677 110.916 132.048C78.3091 129.166 59.8311 120.827 59.8311 104.511C59.8311 88.2207 72.8789 78.4413 96.4268 78.4413C117.813 78.4413 133.743 86.7795 145.71 105.978L189.923 79.5222C172.886 48.717 139.199 28.7979 100.055 28.7979C42.7943 28.7979 7.30533 62.8457 7.30533 107.78C7.30533 158.864 55.8422 180.611 96.0665 184.96C127.592 188.588 141 195.46 141 216.125C141 232.802 129.394 244.022 101.857 244.022C81.5775 244.022 61.6583 232.416 46.423 211.776L0.768555 240.394C23.9561 279.177 59.1105 293.666 102.603 293.666Z" fill="white"/>
<path d="M396.799 289.677H451.873V80.9638H531.241V32.7872H317.818V80.9638H396.799V289.677Z" fill="white"/>
<path d="M830.162 289.677H887.783L795.007 32.4266H737.051L645.356 289.677H704.059L720.735 239.673H812.765L830.162 289.677ZM766.029 103.43L797.195 194.379H735.585L766.029 103.43Z" fill="white"/>
<mask id="mask0_56_54" style="mask-type:luminance" maskUnits="userSpaceOnUse" x="1033" y="82" width="113" height="254">
<path d="M1033.79 82.9698H1145.79V336H1033.79V82.9698Z" fill="white"/>
</mask>
<g mask="url(#mask0_56_54)">
<path fill-rule="evenodd" clip-rule="evenodd" d="M1055.25 131.635C1052.08 127.414 1049.74 122.962 1048.84 118.355C1047.56 111.999 1049.12 106.028 1052.08 100.624C1059.29 109.554 1060.32 121.778 1055.25 131.635ZM1131.04 100.83C1133.92 106.183 1135.42 112.076 1134.15 118.355C1133.25 122.833 1131.01 127.208 1127.9 131.403C1123.01 121.675 1124.04 109.683 1131.04 100.83ZM1075.81 295.878C1074.53 285.764 1078.15 277.554 1084.07 270.194L1075.99 262.911C1065.9 275.289 1060.91 289.624 1067.6 307.845C1070.31 315.231 1077.69 320.687 1086.06 322.514V330.543C1086.06 333.554 1088.5 336.025 1091.49 336.025C1094.47 336.025 1096.94 333.554 1096.94 330.543V322.565C1103.19 321.253 1108.7 317.676 1112.46 312.606C1113.77 310.881 1114.85 308.951 1115.7 306.892C1122.93 286.047 1114.98 269.756 1099.75 255.113L1104.69 251.15L1115.06 242.734C1123.45 235.631 1132.51 226.933 1134.67 216.098C1137.32 202.793 1128.52 191.058 1119.46 182.488L1106.85 172.168L1101.29 168.205C1117.99 157.01 1140.72 141.131 1144.83 120.543C1147.69 106.311 1141.08 93.7524 1131.89 83.5355C1116.73 98.7708 1106.13 117.815 1120.28 139.896C1111.38 148.466 1100 155.929 1091.46 161.617L1087.14 158.708L1085.62 157.679C1078.31 152.712 1069.82 146.767 1062.82 140.076C1077.49 117.48 1066.11 98.8995 1050.95 83.6642C1041.82 93.8297 1035.25 106.363 1038.08 120.543C1042.12 140.694 1063.85 156.289 1081.58 168.179L1081.65 168.23L1091.46 174.793L1097.66 179.065C1106.9 185.576 1126.69 200.245 1123.96 213.962C1122.78 219.959 1117.74 225.44 1113.46 229.506C1108.21 234.499 1102.55 238.848 1096.92 243.352V191.469L1094.47 189.848L1087.63 185.267L1086 184.186V243.378C1080.39 238.874 1074.63 234.422 1069.46 229.506C1065.18 225.466 1060.17 219.959 1058.96 213.988C1056.54 201.738 1072 188.767 1081.94 181.458L1075.35 177.058L1072.31 175.025C1059.39 185.01 1044.96 199.499 1048.28 216.124C1051.13 230.561 1067.06 242.22 1078.21 251.124C1090.69 261.701 1106.93 273.153 1107.39 291.22C1107.49 295.209 1106.8 299.481 1105.1 304.087V304.113C1103.35 307.459 1100.42 310.032 1096.92 311.345V281.801L1088.81 274.517L1086.03 272.021V311.267C1082.01 309.698 1078.77 306.455 1077.23 302.312C1076.58 300.278 1076.07 298.194 1075.79 295.929L1075.81 295.878Z" fill="#00C975"/>
</g>
<mask id="mask1_56_54" style="mask-type:luminance" maskUnits="userSpaceOnUse" x="1066" y="0" width="47" height="156">
<path d="M1066.73 0H1112.85V155.441H1066.73V0Z" fill="white"/>
</mask>
<g mask="url(#mask1_56_54)">
<path fill-rule="evenodd" clip-rule="evenodd" d="M1101.63 19.7128C1101.63 25.3231 1097.1 29.8783 1091.51 29.8783C1085.93 29.8783 1081.4 25.3231 1081.4 19.7128C1081.4 14.0768 1085.93 9.52161 1091.51 9.52161C1097.1 9.52161 1101.63 14.0768 1101.63 19.7128ZM1096.94 146.125V38.6283C1105.13 36.2606 1111.1 29.6466 1111.1 19.7128C1111.1 9.80469 1102.32 0.0252686 1091.51 0.0252686C1080.7 0.0252686 1071.93 9.80469 1071.93 19.7128C1071.93 29.6466 1077.9 36.2606 1086.06 38.6283V146.125C1087.73 147.283 1089.43 148.415 1091.08 149.548L1091.51 149.856C1093.34 148.647 1095.17 147.411 1096.94 146.125Z" fill="white"/>
</g>
<mask id="mask2_56_54" style="mask-type:luminance" maskUnits="userSpaceOnUse" x="898" y="3" width="182" height="133">
<path d="M898.807 3.91101H1079.91V135.676H898.807V3.91101Z" fill="white"/>
</mask>
<g mask="url(#mask2_56_54)">
<path fill-rule="evenodd" clip-rule="evenodd" d="M1018.22 121.058C1007.9 118.974 1001.54 110.533 999.123 95.7606C1006.33 94.5253 1013.79 92.4922 1021.49 89.7128C1031.01 86.29 1027.84 76.4333 1015.83 79.7017C990.527 86.5988 969.064 85.6981 951.461 77.051C983.424 74.2458 1009.62 67.0657 1030.11 55.4591C1032.91 53.7863 1033.89 50.1576 1032.27 47.301C1030.67 44.4443 1027.1 43.4149 1024.21 44.959C1002.93 56.5914 972.821 63.1282 933.832 64.5694C929.432 60.323 925.365 55.3819 921.634 49.7458C961.06 48.6135 997.579 39.5804 1031.19 22.6465C1038.6 18.9149 1039.37 17.062 1041.28 25.8634C1045.88 46.9664 1057.18 60.4775 1075.17 66.4223V52.7311C1065.37 47.8929 1058.24 39.0657 1055.46 28.6686C1051.01 12.0436 1046.96 0.411195 1026.53 11.8634C999.329 27.1759 956.865 36.8524 899.141 40.9443C921.891 80.3451 951.204 99.0804 987.104 97.1503C989.652 120.672 1001.31 133.18 1022.03 134.698C1020.12 130.297 1018.73 125.717 1018.01 121.033L1018.22 121.058ZM1019.35 121.239C1019.17 121.213 1018.99 121.187 1018.81 121.161C1018.99 121.187 1019.14 121.213 1019.35 121.239ZM1021.08 121.444C1020.92 121.444 1020.74 121.419 1020.56 121.393C1020.74 121.419 1020.92 121.419 1021.08 121.444Z" fill="white"/>
</g>
<path fill-rule="evenodd" clip-rule="evenodd" d="M1164.76 121.058C1164.03 125.768 1162.62 130.323 1160.69 134.698C1181.59 133.283 1193.32 120.775 1195.92 97.1504C1231.82 99.0548 1261.13 80.3195 1283.86 40.9444C1226.16 36.8525 1183.7 27.1503 1156.49 11.8635C1136.06 0.385545 1132.02 12.0436 1127.54 28.6687C1124.79 39.04 1117.66 47.893 1107.85 52.7055V66.4224C1125.84 60.4775 1137.14 46.9407 1141.75 25.8635C1143.65 17.062 1144.42 18.915 1151.84 22.6466C1185.45 39.5804 1221.96 48.6135 1261.39 49.7459C1257.66 55.3819 1253.57 60.3231 1249.17 64.5694C1210.2 63.1025 1180.07 56.5915 1158.78 44.9591C1155.9 43.3893 1152.32 44.4444 1150.73 47.301C1149.13 50.1577 1150.09 53.7863 1152.92 55.4591C1173.38 67.04 1199.6 74.2459 1231.54 77.0253C1213.94 85.6981 1192.5 86.5989 1167.2 79.7018C1155.16 76.4334 1152.02 86.2643 1161.54 89.7129C1169.23 92.4923 1176.67 94.4996 1183.88 95.7607C1181.46 110.558 1175.1 118.974 1164.76 121.033V121.058Z" fill="white"/>
</svg>
