<svg width="386" height="336" viewBox="0 0 386 336" fill="none" xmlns="http://www.w3.org/2000/svg">
<mask id="mask0_85_18" style="mask-type:luminance" maskUnits="userSpaceOnUse" x="134" y="82" width="113" height="254">
<path d="M134.98 82.9697H246.98V335.999H134.98V82.9697Z" fill="white"/>
</mask>
<g mask="url(#mask0_85_18)">
<path fill-rule="evenodd" clip-rule="evenodd" d="M156.443 131.635C153.278 127.414 150.936 122.962 150.035 118.355C148.748 111.999 150.318 106.028 153.278 100.624C160.484 109.554 161.513 121.778 156.443 131.635ZM232.234 100.83C235.116 106.182 236.609 112.076 235.348 118.355C234.447 122.833 232.208 127.208 229.094 131.403C224.204 121.675 225.234 109.682 232.234 100.83ZM177.006 295.878C175.719 285.764 179.348 277.554 185.267 270.194L177.186 262.911C167.098 275.289 162.105 289.624 168.796 307.845C171.498 315.231 178.884 320.686 187.248 322.514V330.543C187.248 333.554 189.693 336.025 192.678 336.025C195.664 336.025 198.134 333.554 198.134 330.543V322.565C204.388 321.253 209.895 317.675 213.653 312.606C214.965 310.881 216.046 308.951 216.895 306.892C224.127 286.047 216.175 269.756 200.94 255.113L205.881 251.15L216.252 242.734C224.642 235.631 233.701 226.933 235.862 216.098C238.513 202.793 229.712 191.058 220.653 182.488L208.042 172.168L202.484 168.205C219.186 157.01 241.91 141.131 246.028 120.543C248.884 106.311 242.27 93.7523 233.083 83.5354C217.925 98.7707 207.322 117.815 221.476 139.896C212.572 148.466 201.197 155.929 192.653 161.616L188.329 158.708L186.811 157.679C179.502 152.712 171.009 146.767 164.009 140.076C178.678 117.48 167.303 98.8994 152.145 83.6641C143.009 93.8295 136.447 106.363 139.278 120.543C143.318 140.694 165.039 156.289 182.77 168.179L182.848 168.23L192.653 174.793L198.855 179.065C208.094 185.576 227.884 200.245 225.156 213.962C223.973 219.958 218.929 225.44 214.656 229.506C209.406 234.499 203.745 238.848 198.109 243.352V191.469L195.664 189.848L188.818 185.267L187.197 184.186V243.378C181.587 238.874 175.822 234.422 170.649 229.506C166.377 225.466 161.359 219.958 160.149 213.988C157.73 201.738 173.197 188.767 183.131 181.458L176.542 177.058L173.506 175.024C160.587 185.01 146.149 199.499 149.469 216.124C152.325 230.561 168.256 242.219 179.399 251.124C191.881 261.701 208.12 273.153 208.583 291.22C208.686 295.208 207.991 299.481 206.292 304.087V304.113C204.542 307.459 201.609 310.032 198.109 311.345V281.8L190.002 274.517L187.223 272.021V311.267C183.208 309.697 179.965 306.455 178.421 302.311C177.778 300.278 177.263 298.194 176.98 295.929L177.006 295.878Z" fill="#00C975"/>
</g>
<mask id="mask1_85_18" style="mask-type:luminance" maskUnits="userSpaceOnUse" x="167" y="0" width="48" height="156">
<path d="M167.923 0H214.041V155.441H167.923V0Z" fill="white"/>
</mask>
<g mask="url(#mask1_85_18)">
<path fill-rule="evenodd" clip-rule="evenodd" d="M202.82 19.7127C202.82 25.323 198.29 29.8781 192.706 29.8781C187.121 29.8781 182.592 25.323 182.592 19.7127C182.592 14.0766 187.121 9.52148 192.706 9.52148C198.29 9.52148 202.82 14.0766 202.82 19.7127ZM198.136 146.125V38.6281C206.32 36.2605 212.291 29.6465 212.291 19.7127C212.291 9.80457 203.515 0.0251465 192.706 0.0251465C181.897 0.0251465 173.121 9.80457 173.121 19.7127C173.121 29.6465 179.092 36.2605 187.25 38.6281V146.125C188.923 147.283 190.621 148.415 192.268 149.547L192.706 149.856C194.533 148.647 196.36 147.411 198.136 146.125Z" fill="white"/>
</g>
<mask id="mask2_85_18" style="mask-type:luminance" maskUnits="userSpaceOnUse" x="0" y="3" width="182" height="133">
<path d="M0 3.91113H181.1V135.676H0V3.91113Z" fill="white"/>
</mask>
<g mask="url(#mask2_85_18)">
<path fill-rule="evenodd" clip-rule="evenodd" d="M119.412 121.059C109.092 118.974 102.735 110.533 100.316 95.7607C107.522 94.5254 114.985 92.4923 122.68 89.7129C132.202 86.2901 129.037 76.4335 117.018 79.7019C91.7204 86.5989 70.2571 85.6982 52.6542 77.0511C84.6174 74.246 110.816 67.0658 131.301 55.4592C134.106 53.7864 135.084 50.1577 133.463 47.3011C131.867 44.4445 128.29 43.4151 125.408 44.9592C104.125 56.5915 74.0145 63.1283 35.0255 64.5695C30.6247 60.3232 26.5585 55.382 22.8269 49.7459C62.2534 48.6136 98.7719 39.5805 132.382 22.6466C139.794 18.915 140.566 17.0621 142.47 25.8636C147.077 46.9665 158.375 60.4776 176.364 66.4224V52.7312C166.559 47.893 159.43 39.0658 156.651 28.6687C152.198 12.0437 148.158 0.411317 127.724 11.8635C100.522 27.1761 58.0586 36.8525 0.334229 40.9445C23.0843 80.3452 52.3968 99.0806 88.2976 97.1504C90.8454 120.673 102.503 133.18 123.22 134.698C121.316 130.298 119.926 125.717 119.206 121.033L119.412 121.059ZM120.544 121.239C120.364 121.213 120.184 121.187 120.004 121.161C120.184 121.187 120.338 121.213 120.544 121.239ZM122.268 121.445C122.114 121.445 121.934 121.419 121.754 121.393C121.934 121.419 122.114 121.419 122.268 121.445Z" fill="white"/>
</g>
<path fill-rule="evenodd" clip-rule="evenodd" d="M265.948 121.058C265.228 125.768 263.812 130.323 261.882 134.698C282.779 133.283 294.514 120.775 297.114 97.1504C333.014 99.0548 362.327 80.3195 385.051 40.9444C327.353 36.8525 284.889 27.1503 257.687 11.8635C237.253 0.385545 233.213 12.0436 228.735 28.6687C225.981 39.04 218.853 47.893 209.047 52.7055V66.4224C227.036 60.4775 238.334 46.9407 242.941 25.8635C244.845 17.062 245.617 18.915 253.029 22.6466C286.639 39.5804 323.158 48.6135 362.584 49.7459C358.853 55.3819 354.761 60.3231 350.36 64.5694C311.397 63.1025 281.261 56.5915 259.978 44.9591C257.095 43.3893 253.518 44.4444 251.922 47.301C250.327 50.1577 251.279 53.7863 254.11 55.4591C274.57 67.04 300.794 74.2459 332.731 77.0253C315.128 85.6982 293.691 86.5989 268.393 79.7018C256.349 76.4334 253.209 86.2643 262.731 89.7129C270.426 92.4923 277.864 94.4996 285.07 95.7607C282.65 110.558 276.294 118.974 265.948 121.033V121.058Z" fill="white"/>
</svg>
