<svg width="750" height="426" viewBox="0 0 750 426" fill="none" xmlns="http://www.w3.org/2000/svg">
<path d="M445.757 109.6C410.757 141.3 388.057 188.9 384.457 238.5C383.057 257.4 384.357 276.6 387.657 295.2C393.657 328.7 407.057 361.9 431.257 383.5C442.057 393.2 454.757 400.2 467.657 405.9C513.857 426.4 565.757 431.2 614.457 419.8C653.557 410.6 691.857 389.8 715.957 354.8C726.257 339.8 733.657 322.7 739.057 304.9C755.457 251.1 752.657 189.1 725.557 140.8C670.657 43.1002 520.657 41.8002 445.757 109.6Z" fill="white"/>
<mask id="mask0_207_243" style="mask-type:luminance" maskUnits="userSpaceOnUse" x="383" y="62" width="367" height="364">
<path d="M445.757 109.6C410.757 141.3 388.057 188.9 384.457 238.5C383.057 257.4 384.357 276.6 387.657 295.2C393.657 328.7 407.057 361.9 431.257 383.5C442.057 393.2 454.757 400.2 467.657 405.9C513.857 426.4 565.757 431.2 614.457 419.8C653.557 410.6 691.857 389.8 715.957 354.8C726.257 339.8 733.657 322.7 739.057 304.9C755.457 251.1 752.657 189.1 725.557 140.8C670.657 43.1002 520.657 41.8002 445.757 109.6Z" fill="white"/>
</mask>
<g mask="url(#mask0_207_243)">
<path d="M485.657 390.1C497.957 374.7 513.557 353.2 510.257 350.4C507.157 347.7 481.057 317.6 479.457 318.7C473.257 322.8 470.557 330.4 465.557 335.9C462.857 338.8 459.557 341.1 456.657 343.8C453.157 347 450.357 350.9 447.357 354.5C443.057 359.8 438.457 364.9 433.757 369.9C429.257 374.7 426.657 378.5 423.957 384.5C420.557 392.1 414.857 405.6 423.157 412.1C425.857 414.2 429.157 415.5 432.557 416.4C447.257 420.4 460.757 415.3 472.257 405.7C473.657 404.5 479.157 398.1 485.657 390.1Z" fill="#D98C82"/>
<path d="M503.957 410.3C503.057 425.6 502.257 461.2 501.357 476.5C501.357 477.1 501.357 477.8 501.757 478.2C502.057 478.5 502.457 478.6 502.957 478.8C521.557 483.6 541.557 484.6 560.757 485.6C595.557 487.4 631.757 468.8 664.057 455.4C665.657 454.7 664.757 402.2 664.657 398.4C663.857 369.3 661.057 340.1 657.257 311.2C655.557 298.5 652.657 286 651.057 273.4C649.957 264.5 649.657 256.6 640.257 252.2C633.457 249 625.657 249.2 618.057 249.5C593.357 250.5 569.257 251.4 544.657 254C534.857 255 524.757 255.4 515.957 260.5C499.057 270.2 488.357 288.1 478.857 304.5C466.057 326.7 453.357 348.9 440.557 371.1C438.557 374.5 465.757 389.9 468.657 391.3C479.557 396.4 491.157 398.8 503.057 400.1C503.457 400.1 503.857 400.2 504.157 400.5C504.457 400.8 504.457 401.4 504.457 401.8C504.257 404.7 504.157 407.5 503.957 410.3Z" fill="#00C975"/>
<path d="M670.657 472.4C672.057 471.8 664.857 416.1 664.657 402.8C647.357 418 626.757 429.4 604.657 436.1C591.257 440.1 577.357 442.4 563.557 444.7C543.157 448 521.857 451.3 501.857 447.8C501.657 450.7 501.557 473.8 501.357 476.7C501.357 477.3 501.357 478 501.757 478.4C502.057 478.7 502.457 478.8 502.957 479C521.557 483.8 541.557 484.8 560.757 485.8C595.557 487.4 638.457 485.7 670.657 472.4Z" fill="#116AA6"/>
<path d="M729.457 402.3C725.557 368 714.257 336.3 700.357 304.9C696.857 297 693.157 289.1 687.357 282.7C681.557 276.3 673.457 271.5 664.857 271.7C659.957 271.8 648.457 273.7 646.357 278.7C645.457 280.8 645.857 283.1 646.257 285.3C649.557 304.8 652.057 322.9 657.757 341.8C663.957 362.1 670.057 382.4 676.257 402.6C677.457 406.5 678.657 410.6 678.457 414.7C678.157 423.3 671.857 428.6 668.357 435.8C664.657 443.4 660.657 450.6 656.557 458.1C654.757 461.4 638.057 492.4 640.357 494.1C649.057 500.7 658.357 506.4 668.057 511.3C668.957 511.8 669.957 512.2 671.057 512.2C672.457 512.1 673.557 511.1 674.657 510.2C695.157 490.9 711.857 467.5 723.557 441.9C726.357 435.8 728.857 429.5 729.857 422.8C730.757 415.9 730.257 409 729.457 402.3Z" fill="#F1B2A9"/>
<path d="M729.457 402.3C725.557 368 714.257 336.3 700.357 304.9C696.857 297 693.157 289.1 687.357 282.7C681.557 276.3 673.457 271.5 664.857 271.7C659.957 271.8 648.457 273.7 646.357 278.7C645.457 280.8 645.857 283.1 646.257 285.3C649.557 304.8 652.057 322.9 657.757 341.8C663.957 362.1 670.057 382.4 676.257 402.6C677.157 405.6 678.057 408.6 678.357 411.6C695.457 415.3 713.457 414.6 730.157 409.7C729.957 407.2 729.757 404.7 729.457 402.3Z" fill="#D98C82"/>
<path d="M647.657 378.1C649.657 386.3 651.857 394.5 654.257 402.6C655.057 405.3 656.157 408.4 658.757 409.4C660.057 409.9 661.557 409.8 663.057 409.6C688.557 407 711.157 400.1 730.357 382.2C731.457 381.2 732.557 380.1 732.857 378.6C733.157 377.3 732.757 376 732.257 374.7C724.557 351.4 716.857 328.1 709.057 304.9C705.857 295.1 702.557 285.3 697.257 276.5C691.957 267.7 684.457 259.8 674.957 256.1C660.757 250.5 645.557 249.4 630.357 249.7C629.857 249.7 629.357 249.8 628.957 250.1C628.757 250.4 628.757 250.8 628.757 251.2C628.657 292.7 637.657 337.6 647.657 378.1Z" fill="#00C975"/>
<path d="M552.157 165.4C554.957 154.9 556.357 144.2 558.057 133.5C559.557 124.7 563.657 114.7 563.157 105.8C563.057 104.7 562.957 103.4 562.057 102.8C561.457 102.4 560.757 102.4 560.157 102.5C550.857 102.9 541.257 107.8 536.557 116C532.957 122.3 531.957 129.8 532.357 137C533.057 150 537.957 162.7 546.257 172.6C546.457 172.9 546.757 173.2 547.157 173.3C547.757 173.5 548.257 173.1 548.757 172.6C550.657 170.7 551.457 168 552.157 165.4Z" fill="#13242B"/>
<path d="M625.257 219.2C625.257 225.8 625.057 232.4 625.257 238.9C625.657 248.7 628.557 245.6 636.257 250.1C635.457 249.6 623.857 259.4 622.857 260.2C617.157 264.9 612.257 268.1 604.957 270.3C591.157 274.4 575.857 274 562.357 268.8C560.357 268 558.257 267.1 556.557 265.7C552.657 262.6 550.957 257.6 548.057 253.6C555.257 250.9 558.057 252.6 560.357 245.7C562.157 240.3 561.557 233.4 562.157 227.7C564.157 210.2 566.757 192.9 569.757 175.6C570.257 172.9 595.057 168 598.357 167.2C606.757 165.1 615.957 161.7 624.457 160.6C625.657 169.2 624.957 178.3 625.357 186.9C625.957 197.5 625.357 208.5 625.257 219.2Z" fill="#F1B2A9"/>
<path d="M623.157 178.5C623.157 178 623.157 177.4 622.857 176.9C622.457 176.2 621.557 176 620.757 175.8C611.457 173.9 601.757 174 592.457 176C588.657 176.8 584.957 178 581.657 179.9C574.357 184.2 570.357 191 566.157 197.9C564.657 207.8 563.357 217.7 562.157 227.6C561.657 231.8 561.957 236.9 561.357 241C565.157 244.2 568.757 245.7 573.657 246.5C584.957 248.3 595.657 240.8 603.057 232.2C615.057 218.1 623.557 197.3 623.157 178.5Z" fill="#D98C82"/>
<path d="M539.757 208.8C540.657 212.3 541.957 215.6 544.057 218.4C549.957 226.4 560.757 229.5 570.657 228.6C590.357 226.7 610.657 208.9 621.757 193.4C631.957 179 634.957 160.9 632.657 143.4C631.257 132.7 626.457 122.1 617.757 115.7C612.557 111.9 606.357 109.8 600.057 108.4C586.957 105.6 572.757 106.1 560.757 112.1C547.257 118.9 540.757 132.3 539.357 147.1C537.757 164.7 537.857 181.7 538.457 199.3C538.657 202.5 539.057 205.7 539.757 208.8Z" fill="#F1B2A9"/>
<path d="M575.157 144.6C581.457 140.5 590.957 137.2 596.957 143.6C598.257 145 600.357 142.9 599.057 141.5C596.057 138.3 591.657 136.9 587.257 137C582.257 137.2 577.657 139.3 573.557 142C572.057 143 573.557 145.6 575.157 144.6Z" fill="#13242B"/>
<path d="M555.557 142.7C551.757 138.9 545.357 138.7 541.257 142.1C540.657 142.6 540.757 143.7 541.257 144.2C541.857 144.8 542.757 144.7 543.357 144.2C544.757 143.1 546.657 142.5 548.457 142.6C549.057 142.6 549.157 142.7 549.657 142.8C550.157 142.9 550.657 143.1 551.157 143.3C551.357 143.4 551.957 143.7 552.257 143.9C552.657 144.2 552.957 144.4 553.357 144.8C554.757 146.2 556.857 144.1 555.557 142.7Z" fill="#13242B"/>
<path d="M589.457 160.8C591.39 160.8 592.957 159.233 592.957 157.3C592.957 155.367 591.39 153.8 589.457 153.8C587.524 153.8 585.957 155.367 585.957 157.3C585.957 159.233 587.524 160.8 589.457 160.8Z" fill="#13242B"/>
<path d="M558.757 113.3C546.657 120.4 540.657 133.1 539.457 147.2C539.357 148 539.357 148.7 539.257 149.5C544.057 136.6 550.657 124.4 558.757 113.3Z" fill="#F4C1BD"/>
<path d="M549.257 159.2C550.748 159.2 551.957 157.991 551.957 156.5C551.957 155.009 550.748 153.8 549.257 153.8C547.766 153.8 546.557 155.009 546.557 156.5C546.557 157.991 547.766 159.2 549.257 159.2Z" fill="#13242B"/>
<path d="M650.657 155.8C653.157 149.4 655.357 143 655.557 136C655.757 129.2 653.357 122 648.057 117.7C646.957 116.8 645.657 116 645.157 114.6C644.757 113.6 644.857 112.5 644.957 111.4C645.157 104.4 641.157 97.8002 635.657 93.5002C626.157 86.1002 613.057 84.4002 601.457 83.6002C582.557 82.2002 563.257 82.1002 544.757 86.1002C542.257 86.6002 539.757 87.3002 537.857 88.9002C534.857 91.5002 534.157 95.9002 535.157 99.8002C539.157 115.8 556.257 123.4 570.857 127.5C582.957 130.9 595.757 131.6 608.257 130.9C608.457 135.6 608.657 140.6 610.857 144.8C613.057 149 617.957 152.2 622.457 150.9C620.657 151.4 622.757 173.4 623.057 175.7C624.057 183.7 623.557 192.3 625.357 200.1C626.557 205.2 640.857 188.6 641.557 187.1C642.957 184 643.257 180.6 643.757 177.3C644.857 169.8 647.957 162.8 650.657 155.8Z" fill="#13242B"/>
<path d="M538.657 255.9C540.257 263.5 545.457 269.8 551.857 274C559.357 279 568.457 280.8 577.257 281.6C586.857 282.4 596.857 282.7 606.257 280.5C614.057 278.7 621.357 275.2 627.857 270.5C635.257 265.2 641.457 258.4 646.557 250.9C647.657 249.3 645.057 247.8 643.957 249.4C635.557 261.9 623.357 272.4 608.757 276.7C600.057 279.3 590.957 279.4 581.957 278.9C573.257 278.5 564.257 277.4 556.457 273.3C549.257 269.5 543.057 263.2 541.357 255C541.057 253.2 538.257 254 538.657 255.9Z" fill="#39B54A"/>
<path d="M641.357 187.2C642.757 184.1 643.057 180.7 643.557 177.4C644.757 169.9 647.857 162.9 650.657 155.9C653.157 149.5 655.357 143.1 655.557 136.1C655.657 132.7 655.057 129.2 653.857 126C653.157 128.2 652.057 130.3 650.357 131.8C647.957 134 644.757 134.8 641.557 135.3C630.457 137.2 618.857 136.2 608.157 132.6C608.357 136.8 608.757 141.1 610.657 144.8C612.857 149 617.757 152.2 622.257 150.9C620.457 151.4 622.557 173.4 622.857 175.7C623.857 183.7 623.357 192.3 625.157 200.1C626.357 205.3 640.757 188.6 641.357 187.2Z" fill="#0E1A1E"/>
<path d="M601.657 190.2C604.257 185.5 606.857 180.8 610.057 176.4C613.157 172.1 617.057 167.6 621.957 165.4C624.957 164.1 628.257 164.5 629.857 167.6C631.457 170.6 632.557 174.7 632.557 178.1C632.557 185 627.357 190.3 623.057 195C618.257 200.3 613.457 206.1 606.857 209.1C605.657 209.6 606.657 211.4 607.857 210.8C614.257 207.8 619.157 202.2 623.857 197.1C628.457 192 633.857 186.6 634.557 179.4C634.857 175.5 633.757 171.5 632.257 168C630.957 164.9 628.757 162.7 625.257 162.7C619.557 162.6 614.357 167.8 610.957 171.9C606.557 177.2 603.157 183.1 599.857 189.1C599.257 190.4 601.057 191.4 601.657 190.2Z" fill="#E6E7E8"/>
<path d="M619.557 191.3C618.457 186.7 617.257 182 616.157 177.4C615.957 176.5 615.757 175.5 615.757 174.6C615.857 173.8 616.157 173 616.457 172.3C619.757 165.2 626.357 159.7 633.957 157.9C636.657 157.3 639.557 157.1 642.057 158.2C646.157 160 648.457 166.2 647.357 170.4C645.857 176.3 640.057 181.8 635.157 185C630.757 187.8 624.957 191.2 619.657 192C619.657 191.7 619.657 191.5 619.557 191.3Z" fill="#F1B2A9"/>
<path d="M635.657 165.5C628.957 167.7 624.157 174.6 624.657 181.8C624.757 182.6 625.257 183.3 626.157 183.3C626.957 183.3 627.757 182.6 627.657 181.8C627.257 176 630.857 170.3 636.457 168.4C638.357 167.7 637.557 164.9 635.657 165.5Z" fill="#C6716B"/>
<path d="M561.357 234C568.357 235.3 575.657 234.4 582.357 232.2C594.457 228.2 605.057 220 611.857 209.3C613.457 206.8 608.657 200.4 607.657 197.6C606.957 195.6 604.457 179.1 606.257 178.6C583.857 184.9 560.157 186.4 537.057 183.2C536.057 193.1 536.257 203.1 539.057 212.7C542.357 223.7 549.757 231.8 561.357 234Z" fill="white"/>
<path d="M558.457 230.8C543.657 221.4 538.657 200.2 537.157 183.2C537.157 183.2 537.157 183.2 537.057 183.2C536.057 193.1 536.257 203.1 539.057 212.7C542.357 223.7 549.657 231.8 561.257 234H561.357C562.757 234.3 564.157 234.4 565.657 234.5C563.157 233.4 560.757 232.2 558.457 230.8Z" fill="#E6E7E8"/>
<path d="M559.157 157.5C558.757 161.1 558.257 165.1 555.857 168C553.657 170.6 550.457 172.1 547.957 174.5C545.557 176.9 544.157 180.4 546.457 183.3C548.857 186.4 552.957 186.4 556.557 185.7C558.457 185.4 557.657 182.5 555.757 182.8C553.457 183.2 548.457 183.5 548.257 180C548.057 177.1 552.157 174.9 554.057 173.4C556.457 171.6 558.757 169.6 560.057 166.8C561.457 163.8 561.857 160.6 562.157 157.4C562.357 155.6 559.357 155.6 559.157 157.5Z" fill="#C6716B"/>
<path d="M580.257 129.6C574.157 127.6 568.357 124.9 563.057 121.2C553.257 114.4 545.457 104.4 542.357 92.9001C541.857 90.9001 541.457 88.9001 541.257 86.9001C539.957 87.3001 538.757 87.9002 537.657 88.8002C534.657 91.4002 533.957 95.8001 534.957 99.7001C538.957 115.7 556.057 123.3 570.657 127.4C573.857 128.4 577.057 129.1 580.257 129.6Z" fill="#173138"/>
<path d="M475.957 309.6C464.157 330.1 452.357 350.6 440.557 371.1C438.557 374.5 465.757 389.9 468.657 391.3C479.557 396.4 491.157 398.8 503.057 400.1C503.157 400.1 503.157 400.1 503.257 400.1C503.457 399.8 503.757 399.6 503.957 399.4C491.457 370.6 482.057 340.4 475.957 309.6Z" fill="#39B54A"/>
</g>
<path d="M464.757 164C489.831 164 510.157 143.674 510.157 118.6C510.157 93.5265 489.831 73.2002 464.757 73.2002C439.684 73.2002 419.357 93.5265 419.357 118.6C419.357 143.674 439.684 164 464.757 164Z" fill="#ED1C24"/>
<path d="M450.857 134.8C450.257 134.8 449.657 134.6 449.157 134.1C448.257 133.2 448.257 131.7 449.157 130.8L476.857 103.1C477.757 102.2 479.257 102.2 480.157 103.1C481.057 104 481.057 105.5 480.157 106.4L452.557 134.1C452.057 134.5 451.457 134.8 450.857 134.8Z" fill="white"/>
<path d="M478.557 134.8C477.957 134.8 477.357 134.6 476.857 134.1L449.157 106.4C448.257 105.5 448.257 104 449.157 103.1C450.057 102.2 451.557 102.2 452.457 103.1L480.157 130.8C481.057 131.7 481.057 133.2 480.157 134.1C479.757 134.5 479.157 134.8 478.557 134.8Z" fill="white"/>
<path d="M468.757 391.3C465.757 389.9 438.657 374.5 440.657 371.1C445.857 362.1 450.957 353.2 456.157 344.2C452.957 347.3 450.157 351 447.357 354.5C443.057 359.8 438.457 364.9 433.757 369.9C429.257 374.7 426.657 378.5 423.957 384.5C420.557 392.1 414.857 405.6 423.157 412.1C425.857 414.2 429.157 415.5 432.557 416.4C447.257 420.4 460.757 415.3 472.257 405.7C473.357 404.8 476.757 401 481.057 395.8C476.757 394.7 472.657 393.2 468.757 391.3Z" fill="#D98C82"/>
<path d="M466.857 283.7C467.857 284.9 466.857 304.6 466.757 306.6C466.457 314.3 466.857 322 466.457 329.7C465.657 345.6 466.257 361.3 465.557 377.1C465.157 384.4 464.557 391.8 462.157 398.8C459.657 405.7 455.157 412.1 448.657 415.5C438.257 420.8 423.157 416.7 416.057 407.4C409.657 398.9 411.257 383.6 413.057 373.9C418.857 342.4 425.357 310.2 426.557 278.1C433.457 279.9 439.157 280.9 446.157 281.2C453.057 281.4 459.957 282.3 466.857 283.7C466.857 283.6 466.857 283.6 466.857 283.7Z" fill="#F1B2A9"/>
<path d="M446.757 292.6C453.857 292.3 460.957 291.2 467.357 288.2C475.657 284.3 482.257 277.3 487.157 269.6C491.557 262.6 493.757 254.5 497.857 247.5C501.157 242 505.157 237.5 507.057 231.1C507.657 229.2 507.257 227 505.757 225.7C504.757 224.8 503.257 224.6 501.857 224.6C492.357 225.1 487.157 237.9 481.557 244C480.957 244.6 480.357 245.3 479.457 245.5C478.357 245.7 477.257 245.1 476.457 244.3C470.857 238.9 473.957 229.2 474.757 222.6C476.057 211.3 477.057 199.9 477.157 188.5C477.157 186.6 477.157 184.6 476.457 182.8C475.757 181 474.157 179.5 472.257 179.3C461.857 178.7 459.357 216.4 458.857 223.3C458.257 223.8 457.257 223.4 456.857 222.7C456.457 222 456.457 221.2 456.457 220.4C456.557 206.8 456.357 193.2 455.957 179.5C455.857 177.9 455.857 176.2 455.157 174.7C453.857 171.9 449.257 169.7 446.457 171.9C444.257 173.7 444.757 177.9 444.457 180.5C443.257 190.5 442.257 200.5 442.257 210.6C442.257 214.6 442.357 218.8 440.957 222.6C439.357 222.5 438.657 220.5 438.257 218.9C437.157 213.3 433.257 176.6 423.757 181.1C417.257 184.2 421.857 198.7 422.457 203.7C423.357 210.9 424.157 218.2 424.957 225.5C425.157 227 426.957 232 424.257 232.5C422.357 223.9 420.457 215.3 418.557 206.8C418.057 204.7 417.657 202.6 416.357 200.9C415.057 199.2 412.857 198.1 410.857 198.8C407.957 199.9 407.557 203.7 407.657 206.7C408.257 223.2 410.057 239.7 412.957 256C414.657 265.5 416.957 278.8 425.257 285C430.557 289 440.657 292.9 446.757 292.6Z" fill="#F1B2A9"/>
<path d="M480.057 244.9C477.057 246.9 473.557 247.2 470.157 248C467.057 248.7 464.057 249.9 461.157 251.3C455.557 254.1 450.557 258.2 446.557 263.1C444.257 265.9 442.357 269 440.857 272.3C440.357 273.5 442.057 274.5 442.557 273.3C445.857 265.9 451.257 259.7 458.057 255.3C461.457 253.1 465.057 251.4 468.957 250.3C472.957 249.1 477.457 248.9 480.957 246.5C482.157 245.9 481.157 244.1 480.057 244.9Z" fill="#C6716B"/>
<path d="M478.757 245.4C474.157 245.1 469.657 244.8 465.057 244.5C460.657 244.2 456.257 244.1 451.857 244.6C443.557 245.5 435.557 248.1 428.357 252.2C427.257 252.8 428.257 254.6 429.357 253.9C436.557 249.9 444.557 247.3 452.757 246.5C456.957 246.1 461.157 246.3 465.357 246.5C469.857 246.8 474.357 247.1 478.857 247.4C480.057 247.5 480.057 245.5 478.757 245.4Z" fill="#C6716B"/>
<path d="M61.8573 109.6C26.8573 141.3 4.1573 188.9 0.557302 238.5C-0.842698 257.4 0.457303 276.6 3.7573 295.2C9.7573 328.7 23.1573 361.9 47.3573 383.5C58.1573 393.2 70.8573 400.2 83.7573 405.9C129.957 426.4 181.857 431.2 230.557 419.8C269.657 410.6 307.957 389.8 332.057 354.8C342.357 339.8 349.757 322.7 355.157 304.9C371.557 251.1 368.757 189 341.557 140.7C286.757 43.1001 136.757 41.8001 61.8573 109.6Z" fill="white"/>
<mask id="mask1_207_243" style="mask-type:luminance" maskUnits="userSpaceOnUse" x="0" y="62" width="366" height="364">
<path d="M61.8573 109.6C26.8573 141.3 4.1573 188.9 0.557302 238.5C-0.842698 257.4 0.457303 276.6 3.7573 295.2C9.7573 328.7 23.1573 361.9 47.3573 383.5C58.1573 393.2 70.8573 400.2 83.7573 405.9C129.957 426.4 181.857 431.2 230.557 419.8C269.657 410.6 307.957 389.8 332.057 354.8C342.357 339.8 349.757 322.7 355.157 304.9C371.557 251.1 368.757 189 341.557 140.7C286.757 43.1001 136.757 41.8001 61.8573 109.6Z" fill="white"/>
</mask>
<g mask="url(#mask1_207_243)">
<path d="M101.657 390.1C113.957 374.7 129.557 353.2 126.257 350.4C112.757 338.8 102.857 322 87.1573 313.1C82.0573 310.2 58.6573 350.9 56.3573 355.2C50.2573 366.7 25.1573 401.2 39.0573 412.2C41.7573 414.3 45.0573 415.6 48.4573 416.5C63.1573 420.5 76.6573 415.4 88.1573 405.8C89.7573 404.5 95.2573 398.1 101.657 390.1Z" fill="#D98C82"/>
<path d="M120.057 410.3C119.157 425.6 118.357 461.2 117.457 476.5C117.457 477.1 117.457 477.8 117.857 478.2C118.157 478.5 118.557 478.6 119.057 478.8C137.657 483.6 157.657 484.6 176.857 485.6C211.657 487.4 247.857 468.8 280.157 455.4C281.757 454.7 280.857 402.2 280.757 398.4C279.957 369.3 277.157 340.1 273.357 311.2C271.657 298.5 268.757 286 267.157 273.4C266.057 264.5 265.757 256.6 256.357 252.2C249.557 249 241.757 249.2 234.157 249.5C209.457 250.5 185.357 251.4 160.757 254C150.957 255 140.857 255.4 132.057 260.5C115.157 270.2 104.457 288.1 94.9574 304.5C82.1574 326.7 69.4574 348.9 56.6574 371.1C54.6574 374.5 81.8574 389.9 84.7574 391.3C95.6574 396.4 107.257 398.8 119.157 400.1C119.557 400.1 119.957 400.2 120.257 400.5C120.557 400.8 120.557 401.4 120.557 401.8C120.357 404.7 120.157 407.5 120.057 410.3Z" fill="#00C975"/>
<path d="M286.757 472.4C288.157 471.8 280.957 416.1 280.757 402.8C263.457 418 242.857 429.4 220.757 436.1C207.357 440.1 193.457 442.4 179.657 444.7C159.257 448 137.957 451.3 117.957 447.8C117.757 450.7 117.657 473.8 117.457 476.7C117.457 477.3 117.457 478 117.857 478.4C118.157 478.7 118.557 478.8 119.057 479C137.657 483.8 157.657 484.8 176.857 485.8C211.657 487.4 254.557 485.7 286.757 472.4Z" fill="#116AA6"/>
<path d="M345.557 402.3C341.657 368 330.357 336.3 316.457 304.9C312.957 297 309.257 289.1 303.457 282.7C297.657 276.3 289.557 271.5 280.957 271.7C276.057 271.8 264.557 273.7 262.457 278.7C261.557 280.8 261.957 283.1 262.357 285.3C265.657 304.8 268.157 322.9 273.857 341.8C280.057 362.1 286.157 382.4 292.357 402.6C293.557 406.5 294.757 410.6 294.557 414.7C294.257 423.3 287.957 428.6 284.457 435.8C280.757 443.4 276.757 450.6 272.657 458.1C270.857 461.4 254.157 492.4 256.457 494.1C265.157 500.7 274.457 506.4 284.157 511.3C285.057 511.8 286.057 512.2 287.157 512.2C288.557 512.1 289.657 511.1 290.757 510.2C311.257 490.9 327.957 467.5 339.657 441.9C342.457 435.8 344.957 429.5 345.957 422.8C346.757 415.9 346.357 409 345.557 402.3Z" fill="#F1B2A9"/>
<path d="M345.557 402.3C341.657 368 330.357 336.3 316.457 304.9C312.957 297 309.257 289.1 303.457 282.7C297.657 276.3 289.557 271.5 280.957 271.7C276.057 271.8 264.557 273.7 262.457 278.7C261.557 280.8 261.957 283.1 262.357 285.3C265.657 304.8 268.157 322.9 273.857 341.8C280.057 362.1 286.157 382.4 292.357 402.6C293.257 405.6 294.157 408.6 294.457 411.6C311.557 415.3 329.557 414.6 346.257 409.7C346.057 407.2 345.857 404.7 345.557 402.3Z" fill="#D98C82"/>
<path d="M263.757 378.1C265.757 386.3 267.957 394.5 270.357 402.6C271.157 405.3 272.257 408.4 274.857 409.4C276.157 409.9 277.657 409.8 279.157 409.6C304.657 407 327.257 400.1 346.457 382.2C347.557 381.2 348.657 380.1 348.957 378.6C349.257 377.3 348.857 376 348.357 374.7C340.657 351.4 332.957 328.1 325.157 304.9C321.957 295.1 318.657 285.3 313.357 276.5C308.057 267.7 300.557 259.8 291.057 256.1C276.857 250.5 261.657 249.4 246.457 249.7C245.957 249.7 245.457 249.8 245.057 250.1C244.857 250.4 244.857 250.8 244.857 251.2C244.757 292.7 253.757 337.6 263.757 378.1Z" fill="#00C975"/>
<path d="M168.257 165.4C171.057 154.9 172.457 144.2 174.157 133.5C175.657 124.7 179.757 114.7 179.257 105.8C179.157 104.7 179.057 103.4 178.157 102.8C177.557 102.4 176.857 102.4 176.257 102.5C166.957 102.9 157.357 107.8 152.657 116C149.057 122.3 148.057 129.8 148.457 137C149.157 150 154.057 162.7 162.357 172.6C162.557 172.9 162.857 173.2 163.257 173.3C163.857 173.5 164.357 173.1 164.857 172.6C166.757 170.7 167.557 168 168.257 165.4Z" fill="#13242B"/>
<path d="M241.357 219.2C241.357 225.8 241.157 232.4 241.357 238.9C241.757 248.7 244.657 245.6 252.357 250.1C251.557 249.6 239.957 259.4 238.957 260.2C233.257 264.9 228.357 268.1 221.057 270.3C207.257 274.4 191.957 274 178.457 268.8C176.457 268 174.357 267.1 172.657 265.7C168.757 262.6 167.057 257.6 164.157 253.6C171.357 250.9 174.157 252.6 176.457 245.7C178.257 240.3 177.657 233.4 178.257 227.7C180.257 210.2 182.857 192.9 185.857 175.6C186.357 172.9 211.157 168 214.457 167.2C222.857 165.1 232.057 161.7 240.557 160.6C241.757 169.2 241.057 178.3 241.457 186.9C242.057 197.5 241.457 208.5 241.357 219.2Z" fill="#F1B2A9"/>
<path d="M239.257 178.5C239.257 178 239.257 177.4 238.957 176.9C238.557 176.2 237.657 176 236.857 175.8C227.557 173.9 217.857 174 208.557 176C204.757 176.8 201.057 178 197.757 179.9C190.457 184.2 186.457 191 182.257 197.9C180.757 207.8 179.457 217.7 178.257 227.6C177.757 231.8 177.357 235.8 176.757 239.9C180.557 243.1 184.857 245.6 189.757 246.4C201.057 248.2 211.757 240.7 219.157 232.1C231.157 218.1 239.657 197.3 239.257 178.5Z" fill="#D98C82"/>
<path d="M155.857 208.8C156.757 212.3 158.057 215.6 160.157 218.4C166.057 226.4 176.857 229.5 186.757 228.6C206.457 226.7 226.757 208.9 237.857 193.4C248.057 179 251.057 160.9 248.757 143.4C247.357 132.7 242.557 122.1 233.857 115.7C228.657 111.9 222.457 109.8 216.157 108.4C203.057 105.6 188.857 106.1 176.857 112.1C163.357 118.9 156.857 132.3 155.457 147.1C153.857 164.7 153.957 181.7 154.557 199.3C154.757 202.5 155.057 205.7 155.857 208.8Z" fill="#F1B2A9"/>
<path d="M175.257 157.5C174.857 161.1 174.357 165.1 171.957 168C169.757 170.6 166.557 172.1 164.057 174.5C161.657 176.9 160.257 180.4 162.557 183.3C164.957 186.4 169.057 186.4 172.657 185.7C174.557 185.4 173.757 182.5 171.857 182.8C169.557 183.2 164.557 183.5 164.357 180C164.157 177.1 168.257 174.9 170.157 173.4C172.557 171.6 174.857 169.6 176.157 166.8C177.557 163.8 177.957 160.6 178.257 157.4C178.457 155.6 175.457 155.6 175.257 157.5Z" fill="#C6716B"/>
<path d="M164.357 195.3C169.057 199 175.457 200 181.057 198.2C186.557 196.4 191.057 192.1 193.557 186.9C194.357 185.2 191.857 183.6 190.957 185.4C188.857 189.8 185.257 193.5 180.557 195.2C175.857 196.9 170.357 196.3 166.357 193.2C164.957 192 162.757 194.1 164.357 195.3Z" fill="#C6716B"/>
<path d="M191.257 144.6C197.557 140.5 207.057 137.2 213.057 143.6C214.357 145 216.457 142.9 215.157 141.5C212.157 138.3 207.757 136.9 203.357 137C198.357 137.2 193.757 139.3 189.657 142C188.157 143 189.657 145.6 191.257 144.6Z" fill="#13242B"/>
<path d="M171.657 142.7C167.857 138.9 161.457 138.7 157.357 142.1C156.757 142.6 156.857 143.7 157.357 144.2C157.957 144.8 158.857 144.7 159.457 144.2C160.857 143.1 162.757 142.5 164.557 142.6C165.157 142.6 165.257 142.7 165.757 142.8C166.257 142.9 166.757 143.1 167.257 143.3C167.457 143.4 168.057 143.7 168.357 143.9C168.757 144.2 169.057 144.4 169.457 144.8C170.857 146.2 172.957 144.1 171.657 142.7Z" fill="#13242B"/>
<path d="M204.757 159.2C206.249 159.2 207.457 157.991 207.457 156.5C207.457 155.009 206.249 153.8 204.757 153.8C203.266 153.8 202.057 155.009 202.057 156.5C202.057 157.991 203.266 159.2 204.757 159.2Z" fill="#13242B"/>
<path d="M174.757 113.3C162.657 120.4 156.657 133.1 155.457 147.2C155.357 148 155.357 148.7 155.257 149.5C160.157 136.6 166.757 124.4 174.757 113.3Z" fill="#F4C1BD"/>
<path d="M165.357 159.2C166.849 159.2 168.057 157.991 168.057 156.5C168.057 155.009 166.849 153.8 165.357 153.8C163.866 153.8 162.657 155.009 162.657 156.5C162.657 157.991 163.866 159.2 165.357 159.2Z" fill="#13242B"/>
<path d="M266.757 155.8C269.257 149.4 271.457 143 271.657 136C271.857 129.2 269.457 122 264.157 117.7C263.057 116.8 261.757 116 261.257 114.6C260.857 113.6 260.957 112.5 261.057 111.4C261.257 104.4 257.257 97.8002 251.757 93.5002C242.257 86.1002 229.157 84.4002 217.557 83.6002C198.657 82.2002 179.357 82.1002 160.857 86.1002C158.357 86.6002 155.857 87.3002 153.957 88.9002C150.957 91.5002 150.257 95.9002 151.257 99.8002C155.257 115.8 172.357 123.4 186.957 127.5C199.057 130.9 211.857 131.6 224.357 130.9C224.557 135.6 224.757 140.6 226.957 144.8C229.157 149 234.057 152.2 238.557 150.9C236.757 151.4 238.857 173.4 239.157 175.7C240.157 183.7 239.657 192.3 241.457 200.1C242.657 205.2 256.957 188.6 257.657 187.1C259.057 184 259.357 180.6 259.857 177.3C260.857 169.8 264.057 162.8 266.757 155.8Z" fill="#13242B"/>
<path d="M257.357 187.2C258.757 184.1 259.057 180.7 259.557 177.4C260.757 169.9 263.857 162.9 266.657 155.9C269.157 149.5 271.357 143.1 271.557 136.1C271.657 132.7 271.057 129.2 269.857 126C269.157 128.2 268.057 130.3 266.357 131.8C263.957 134 260.757 134.8 257.557 135.3C246.457 137.2 234.857 136.2 224.157 132.6C224.357 136.8 224.757 141.1 226.657 144.8C228.857 149 233.757 152.2 238.257 150.9C236.457 151.4 238.557 173.4 238.857 175.7C239.857 183.7 239.357 192.3 241.157 200.1C242.357 205.3 256.657 188.6 257.357 187.2Z" fill="#0E1A1E"/>
<path d="M119.157 400.2C119.457 400.2 119.757 400.3 120.057 400.4C120.457 395 115.657 369.6 115.357 366.3C114.157 353.5 113.357 340.6 113.157 327.7C112.957 318.6 114.057 309.6 114.057 300.6C118.057 302.1 122.157 299 125.257 296.1C128.457 293.2 131.757 290.1 132.957 286C134.257 281.3 132.457 276.2 129.757 272.1C128.257 269.8 126.457 267.7 124.657 265.6C111.857 275.8 102.957 290.7 95.0573 304.5C82.2573 326.7 69.5573 348.9 56.7573 371.1C54.7573 374.5 81.9573 389.9 84.8573 391.3C95.7573 396.4 107.257 398.9 119.157 400.2Z" fill="#39B54A"/>
<path d="M217.457 175.6C222.957 172.4 228.457 169.4 234.057 166.5C235.357 165.8 236.757 165.1 238.157 164.4C239.557 163.7 241.057 162.9 242.657 163C245.257 163.1 247.157 165.4 248.157 167.6C250.457 172.8 248.957 179 246.257 183.7C243.457 188.7 239.157 192.7 234.857 196.4C229.457 201.1 224.057 205.7 218.557 210.4C217.557 211.2 218.957 212.6 219.957 211.8C225.357 207.2 230.757 202.6 236.057 198C240.657 194 245.257 189.7 248.157 184.2C250.857 179.1 252.157 172.7 249.957 167.2C249.057 164.9 247.357 162.7 245.057 161.6C242.257 160.4 239.557 161.4 237.057 162.7C230.057 166.2 223.157 169.9 216.357 173.9C215.357 174.5 216.357 176.2 217.457 175.6Z" fill="#E6E7E8"/>
<path d="M173.557 228.8C149.557 222.4 153.757 194.6 153.157 175.4C152.857 167.5 169.257 166.1 174.857 166.1C181.957 166.1 188.157 168.4 194.957 170C202.757 171.9 211.557 171.9 219.557 172.5C223.057 185 224.357 198.2 223.257 211.2C215.757 218.8 206.457 224.6 196.257 227.7C188.857 229.8 180.957 230.7 173.557 228.8Z" fill="white"/>
<path d="M173.557 228.8C174.957 229.2 176.457 229.5 177.957 229.6C169.557 224.5 162.857 216.4 159.757 207.1C157.857 201.4 157.257 195.5 156.657 189.5C156.057 183.4 155.457 177.4 154.757 171.3C153.657 172.4 153.057 173.7 153.057 175.3C153.757 194.6 149.557 222.4 173.557 228.8Z" fill="#E6E7E8"/>
<path d="M165.557 185.2C163.857 179 171.057 175.9 171.457 170.4C172.357 172.7 171.657 175 170.957 177.1C170.257 179.1 169.657 181.3 170.257 183.4C170.857 185.5 173.157 187.2 175.157 186.4C174.157 188.2 172.057 189.3 169.957 189.1C167.957 188.7 166.157 187.2 165.557 185.2Z" fill="#E6E7E8"/>
<path d="M154.657 255.9C156.257 263.5 161.457 269.8 167.857 274C175.357 279 184.457 280.8 193.257 281.6C202.857 282.4 212.857 282.7 222.257 280.5C230.057 278.7 237.357 275.2 243.857 270.5C251.257 265.2 257.457 258.4 262.557 250.9C263.657 249.3 261.057 247.8 259.957 249.4C251.557 261.9 239.357 272.4 224.757 276.7C216.057 279.3 206.957 279.4 197.957 278.9C189.257 278.5 180.257 277.4 172.457 273.3C165.257 269.5 159.057 263.2 157.357 255C157.157 253.2 154.257 254 154.657 255.9Z" fill="#39B54A"/>
<path d="M235.657 191.3C234.557 186.7 233.357 182 232.257 177.4C232.057 176.5 231.857 175.5 231.857 174.6C231.957 173.8 232.257 173 232.557 172.3C235.857 165.2 242.457 159.7 250.057 157.9C252.757 157.3 255.657 157.1 258.157 158.2C262.257 160 264.557 166.2 263.457 170.4C261.957 176.3 256.157 181.8 251.257 185C246.857 187.8 241.057 191.2 235.757 192C235.757 191.7 235.757 191.5 235.657 191.3Z" fill="#F1B2A9"/>
<path d="M251.757 165.5C245.057 167.7 240.257 174.6 240.757 181.8C240.857 182.6 241.357 183.3 242.257 183.3C243.057 183.3 243.857 182.6 243.757 181.8C243.357 176 246.957 170.3 252.557 168.4C254.357 167.7 253.657 164.9 251.757 165.5Z" fill="#C6716B"/>
<path d="M196.357 129.6C190.257 127.6 184.457 124.9 179.157 121.2C169.357 114.4 161.557 104.4 158.457 92.9001C157.957 90.9001 157.557 88.9001 157.357 86.9001C156.057 87.3001 154.857 87.9002 153.757 88.8002C150.757 91.4002 150.057 95.8001 151.057 99.7001C155.057 115.7 172.157 123.3 186.757 127.4C189.957 128.4 193.157 129.1 196.357 129.6Z" fill="#173138"/>
</g>
<path d="M80.2573 164C105.331 164 125.657 143.674 125.657 118.6C125.657 93.5265 105.331 73.2002 80.2573 73.2002C55.1836 73.2002 34.8573 93.5265 34.8573 118.6C34.8573 143.674 55.1836 164 80.2573 164Z" fill="#39B54A"/>
<path d="M75.0573 134.8C74.4573 134.8 73.8573 134.6 73.3573 134.1L56.0573 116.8C55.1573 115.9 55.1573 114.4 56.0573 113.5C56.9573 112.6 58.4573 112.6 59.3573 113.5L75.0573 129.2L101.057 103.2C101.957 102.3 103.457 102.3 104.357 103.2C105.257 104.1 105.257 105.6 104.357 106.5L76.6573 134.2C76.2573 134.5 75.7573 134.8 75.0573 134.8Z" fill="white"/>
<path d="M84.7573 391.3C81.7573 389.9 54.6573 374.5 56.6573 371.1C61.8573 362.1 66.9573 353.2 72.1573 344.2C68.9573 347.3 66.1573 351 63.3573 354.5C59.0573 359.8 54.4573 364.9 49.7573 369.9C45.2573 374.7 42.6573 378.5 39.9573 384.5C36.5573 392.1 30.8573 405.6 39.1573 412.1C41.8573 414.2 45.1573 415.5 48.5573 416.4C63.2573 420.4 76.7573 415.3 88.2573 405.7C89.3573 404.8 92.7573 401 97.0573 395.8C92.7573 394.7 88.7573 393.2 84.7573 391.3Z" fill="#D98C82"/>
<path d="M90.9573 243.6C90.6573 244.5 90.3573 245.2 89.8573 245.7C88.0573 247.4 80.4573 245.7 78.0573 245.8C78.5573 238.3 71.9573 216.1 78.4573 211.3C83.6573 207.5 88.9573 219.7 89.9573 224.5C90.7573 227.9 92.3573 238.5 90.9573 243.6Z" fill="#D98C82"/>
<path d="M123.557 285.3C122.057 288.9 118.957 291.8 115.557 293.6C114.157 294.4 104.457 296.4 104.257 297.1C100.857 310.8 95.4573 323.6 93.1573 337.3C90.6573 352.3 87.1573 367 82.8573 381.6C80.7573 388.6 78.3573 395.7 74.3573 401.8C70.2573 407.9 64.3573 413.1 57.1573 414.7C45.7573 417.3 32.0573 409.7 27.4573 399C23.2573 389.2 28.5573 374.8 32.5573 365.8C39.2573 351 45.9573 336.2 52.6573 321.3C58.4573 308.5 66.6573 299.2 66.7573 284.4C66.7573 281.5 66.5573 278.7 66.3573 275.8C65.5573 265.6 61.0573 246.5 69.6573 238.6C72.6573 235.9 76.6573 234.7 80.5573 233.8C90.8573 231.3 100.657 230.2 111.157 230.5C115.757 230.7 121.257 232 122.457 236.4C123.557 240.3 120.457 244.1 117.357 246.7C120.657 245.6 124.657 247.7 125.557 251C126.457 254.3 124.157 258.2 120.757 258.9C123.857 259.3 126.357 262.2 126.457 265.3C126.457 268.4 124.057 271.4 120.957 271.9C124.657 275 125.457 280.8 123.557 285.3Z" fill="#F1B2A9"/>
<path d="M123.557 285.3C125.457 280.8 124.657 275 120.857 272.1C123.957 271.6 126.357 268.6 126.357 265.5C126.357 262.4 123.757 259.5 120.657 259.1C124.057 258.4 126.357 254.5 125.457 251.2C124.557 247.9 120.557 245.8 117.257 246.9C120.357 244.3 123.457 240.5 122.357 236.6C121.157 232.2 115.557 230.8 111.057 230.7C100.657 230.4 90.7573 231.5 80.4573 234C77.4573 234.7 74.3573 235.6 71.6573 237.2C71.4573 238.8 70.7573 240.4 70.4573 242C69.9573 244.2 70.1573 247 72.1573 248.2C73.0573 248.7 74.0573 248.9 75.1573 248.9C78.5573 249.2 81.9573 249.3 85.3573 249.3C83.3573 252.3 83.3573 256.7 85.5573 259.6C87.6573 262.6 91.7573 264 95.2573 263.1C93.7573 266.2 92.5573 269.7 93.1573 273.1C93.7573 276.5 96.8573 279.7 100.257 279.2C96.8573 281.3 98.1573 287 101.557 289.1C104.957 291.1 109.257 290.6 113.257 289.9C116.257 289.4 119.357 288.8 122.357 288C122.657 287 123.157 286.2 123.557 285.3Z" fill="#F4C1BD"/>
<path d="M128.064 7.72727H132.985V22.8409C132.985 24.5379 132.58 26.0227 131.769 27.2955C130.966 28.5682 129.841 29.5606 128.394 30.2727C126.947 30.9773 125.261 31.3295 123.337 31.3295C121.405 31.3295 119.716 30.9773 118.269 30.2727C116.822 29.5606 115.697 28.5682 114.894 27.2955C114.091 26.0227 113.689 24.5379 113.689 22.8409V7.72727H118.61V22.4205C118.61 23.3068 118.803 24.0947 119.189 24.7841C119.583 25.4735 120.136 26.0152 120.849 26.4091C121.561 26.803 122.39 27 123.337 27C124.292 27 125.121 26.803 125.826 26.4091C126.538 26.0152 127.087 25.4735 127.474 24.7841C127.868 24.0947 128.064 23.3068 128.064 22.4205V7.72727ZM149.658 14.4205C149.567 13.5038 149.177 12.7917 148.488 12.2841C147.798 11.7765 146.863 11.5227 145.681 11.5227C144.878 11.5227 144.2 11.6364 143.647 11.8636C143.094 12.0833 142.67 12.3902 142.374 12.7841C142.086 13.178 141.942 13.625 141.942 14.125C141.927 14.5417 142.014 14.9053 142.204 15.2159C142.401 15.5265 142.67 15.7955 143.01 16.0227C143.351 16.2424 143.745 16.4356 144.192 16.6023C144.639 16.7614 145.117 16.8977 145.624 17.0114L147.715 17.5114C148.73 17.7386 149.662 18.0417 150.51 18.4205C151.359 18.7992 152.094 19.2652 152.715 19.8182C153.336 20.3712 153.817 21.0227 154.158 21.7727C154.507 22.5227 154.685 23.3826 154.692 24.3523C154.685 25.7765 154.321 27.0114 153.601 28.0568C152.889 29.0947 151.859 29.9015 150.51 30.4773C149.17 31.0455 147.552 31.3295 145.658 31.3295C143.779 31.3295 142.143 31.0417 140.749 30.4659C139.363 29.8902 138.279 29.0379 137.499 27.9091C136.726 26.7727 136.321 25.3674 136.283 23.6932H141.045C141.098 24.4735 141.321 25.125 141.715 25.6477C142.117 26.1629 142.651 26.553 143.317 26.8182C143.992 27.0758 144.753 27.2045 145.601 27.2045C146.435 27.2045 147.158 27.0833 147.772 26.8409C148.393 26.5985 148.874 26.2614 149.215 25.8295C149.556 25.3977 149.726 24.9015 149.726 24.3409C149.726 23.8182 149.571 23.3788 149.26 23.0227C148.957 22.6667 148.51 22.3636 147.92 22.1136C147.336 21.8636 146.62 21.6364 145.772 21.4318L143.238 20.7955C141.276 20.3182 139.726 19.572 138.59 18.5568C137.454 17.5417 136.889 16.1742 136.897 14.4545C136.889 13.0455 137.264 11.8144 138.022 10.7614C138.787 9.70833 139.836 8.88636 141.17 8.29545C142.503 7.70454 144.018 7.40909 145.715 7.40909C147.442 7.40909 148.95 7.70454 150.238 8.29545C151.533 8.88636 152.541 9.70833 153.26 10.7614C153.98 11.8144 154.351 13.0341 154.374 14.4205H149.658ZM158.002 31V7.72727H173.684V11.7841H162.922V17.3295H172.877V21.3864H162.922V26.9432H173.729V31H158.002ZM185.002 7.72727H191.07L197.479 23.3636H197.752L204.161 7.72727H210.229V31H205.457V15.8523H205.263L199.241 30.8864H195.991L189.968 15.7955H189.775V31H185.002V7.72727ZM218.295 31H213.022L221.056 7.72727H227.397L235.42 31H230.147L224.317 13.0455H224.135L218.295 31ZM217.965 21.8523H230.42V25.6932H217.965V21.8523ZM222.488 5.47727L224.897 0.306818H229.374L225.908 5.47727H222.488ZM250.314 14.4205C250.224 13.5038 249.833 12.7917 249.144 12.2841C248.455 11.7765 247.519 11.5227 246.337 11.5227C245.534 11.5227 244.856 11.6364 244.303 11.8636C243.75 12.0833 243.326 12.3902 243.03 12.7841C242.743 13.178 242.599 13.625 242.599 14.125C242.583 14.5417 242.671 14.9053 242.86 15.2159C243.057 15.5265 243.326 15.7955 243.667 16.0227C244.008 16.2424 244.402 16.4356 244.849 16.6023C245.296 16.7614 245.773 16.8977 246.28 17.0114L248.371 17.5114C249.386 17.7386 250.318 18.0417 251.167 18.4205C252.015 18.7992 252.75 19.2652 253.371 19.8182C253.993 20.3712 254.474 21.0227 254.814 21.7727C255.163 22.5227 255.341 23.3826 255.349 24.3523C255.341 25.7765 254.977 27.0114 254.258 28.0568C253.546 29.0947 252.515 29.9015 251.167 30.4773C249.826 31.0455 248.208 31.3295 246.314 31.3295C244.436 31.3295 242.799 31.0417 241.405 30.4659C240.019 29.8902 238.936 29.0379 238.155 27.9091C237.383 26.7727 236.977 25.3674 236.939 23.6932H241.701C241.754 24.4735 241.977 25.125 242.371 25.6477C242.773 26.1629 243.307 26.553 243.974 26.8182C244.648 27.0758 245.409 27.2045 246.258 27.2045C247.091 27.2045 247.814 27.0833 248.428 26.8409C249.049 26.5985 249.53 26.2614 249.871 25.8295C250.212 25.3977 250.383 24.9015 250.383 24.3409C250.383 23.8182 250.227 23.3788 249.917 23.0227C249.614 22.6667 249.167 22.3636 248.576 22.1136C247.993 21.8636 247.277 21.6364 246.428 21.4318L243.894 20.7955C241.932 20.3182 240.383 19.572 239.246 18.5568C238.11 17.5417 237.546 16.1742 237.553 14.4545C237.546 13.0455 237.921 11.8144 238.678 10.7614C239.443 9.70833 240.493 8.88636 241.826 8.29545C243.159 7.70454 244.674 7.40909 246.371 7.40909C248.099 7.40909 249.606 7.70454 250.894 8.29545C252.189 8.88636 253.197 9.70833 253.917 10.7614C254.636 11.8144 255.008 13.0341 255.03 14.4205H250.314ZM279.192 15.875H274.215C274.124 15.2311 273.939 14.6591 273.658 14.1591C273.378 13.6515 273.018 13.2197 272.579 12.8636C272.139 12.5076 271.632 12.2348 271.056 12.0455C270.488 11.8561 269.87 11.7614 269.204 11.7614C267.999 11.7614 266.95 12.0606 266.056 12.6591C265.162 13.25 264.469 14.1136 263.976 15.25C263.484 16.3788 263.238 17.75 263.238 19.3636C263.238 21.0227 263.484 22.4167 263.976 23.5455C264.476 24.6742 265.173 25.5265 266.067 26.1023C266.961 26.678 267.995 26.9659 269.17 26.9659C269.829 26.9659 270.439 26.8788 270.999 26.7045C271.567 26.5303 272.071 26.2765 272.51 25.9432C272.95 25.6023 273.314 25.1894 273.601 24.7045C273.897 24.2197 274.101 23.6667 274.215 23.0455L279.192 23.0682C279.064 24.1364 278.742 25.1667 278.226 26.1591C277.719 27.1439 277.033 28.0265 276.17 28.8068C275.314 29.5795 274.291 30.1932 273.101 30.6477C271.92 31.0947 270.582 31.3182 269.09 31.3182C267.014 31.3182 265.158 30.8485 263.522 29.9091C261.893 28.9697 260.605 27.6098 259.658 25.8295C258.719 24.0492 258.249 21.8939 258.249 19.3636C258.249 16.8258 258.726 14.6667 259.681 12.8864C260.635 11.1061 261.931 9.75 263.567 8.81818C265.204 7.87879 267.045 7.40909 269.09 7.40909C270.439 7.40909 271.689 7.59848 272.84 7.97727C273.999 8.35606 275.026 8.90909 275.92 9.63636C276.814 10.3561 277.541 11.2386 278.101 12.2841C278.67 13.3295 279.033 14.5265 279.192 15.875ZM286.295 31H281.022L289.056 7.72727H295.397L303.42 31H298.147L292.317 13.0455H292.135L286.295 31ZM285.965 21.8523H298.42V25.6932H285.965V21.8523ZM306.221 31V7.72727H315.403C317.16 7.72727 318.66 8.04167 319.903 8.67045C321.153 9.29167 322.103 10.1742 322.755 11.3182C323.414 12.4545 323.743 13.7917 323.743 15.3295C323.743 16.875 323.41 18.2045 322.743 19.3182C322.077 20.4242 321.111 21.2727 319.846 21.8636C318.588 22.4545 317.065 22.75 315.278 22.75H309.13V18.7955H314.482C315.421 18.7955 316.202 18.6667 316.823 18.4091C317.444 18.1515 317.906 17.7652 318.209 17.25C318.52 16.7348 318.675 16.0947 318.675 15.3295C318.675 14.5568 318.52 13.9053 318.209 13.375C317.906 12.8447 317.44 12.4432 316.812 12.1705C316.19 11.8902 315.406 11.75 314.459 11.75H311.141V31H306.221ZM318.789 20.4091L324.573 31H319.141L313.482 20.4091H318.789ZM331.232 31H325.959L333.993 7.72727H340.334L348.357 31H343.084L337.255 13.0455H337.073L331.232 31ZM330.903 21.8523H343.357V25.6932H330.903V21.8523ZM379.099 15.875H374.121C374.03 15.2311 373.845 14.6591 373.564 14.1591C373.284 13.6515 372.924 13.2197 372.485 12.8636C372.046 12.5076 371.538 12.2348 370.962 12.0455C370.394 11.8561 369.777 11.7614 369.11 11.7614C367.905 11.7614 366.856 12.0606 365.962 12.6591C365.068 13.25 364.375 14.1136 363.883 15.25C363.39 16.3788 363.144 17.75 363.144 19.3636C363.144 21.0227 363.39 22.4167 363.883 23.5455C364.383 24.6742 365.08 25.5265 365.974 26.1023C366.868 26.678 367.902 26.9659 369.076 26.9659C369.735 26.9659 370.345 26.8788 370.905 26.7045C371.474 26.5303 371.977 26.2765 372.417 25.9432C372.856 25.6023 373.22 25.1894 373.508 24.7045C373.803 24.2197 374.008 23.6667 374.121 23.0455L379.099 23.0682C378.97 24.1364 378.648 25.1667 378.133 26.1591C377.625 27.1439 376.939 28.0265 376.076 28.8068C375.22 29.5795 374.197 30.1932 373.008 30.6477C371.826 31.0947 370.489 31.3182 368.996 31.3182C366.921 31.3182 365.064 30.8485 363.428 29.9091C361.799 28.9697 360.511 27.6098 359.564 25.8295C358.625 24.0492 358.155 21.8939 358.155 19.3636C358.155 16.8258 358.633 14.6667 359.587 12.8864C360.542 11.1061 361.837 9.75 363.474 8.81818C365.11 7.87879 366.951 7.40909 368.996 7.40909C370.345 7.40909 371.595 7.59848 372.746 7.97727C373.905 8.35606 374.932 8.90909 375.826 9.63636C376.72 10.3561 377.447 11.2386 378.008 12.2841C378.576 13.3295 378.939 14.5265 379.099 15.875ZM404.013 19.3636C404.013 21.9015 403.532 24.0606 402.57 25.8409C401.616 27.6212 400.313 28.9811 398.661 29.9205C397.017 30.8523 395.169 31.3182 393.116 31.3182C391.047 31.3182 389.191 30.8485 387.547 29.9091C385.903 28.9697 384.604 27.6098 383.65 25.8295C382.695 24.0492 382.218 21.8939 382.218 19.3636C382.218 16.8258 382.695 14.6667 383.65 12.8864C384.604 11.1061 385.903 9.75 387.547 8.81818C389.191 7.87879 391.047 7.40909 393.116 7.40909C395.169 7.40909 397.017 7.87879 398.661 8.81818C400.313 9.75 401.616 11.1061 402.57 12.8864C403.532 14.6667 404.013 16.8258 404.013 19.3636ZM399.025 19.3636C399.025 17.7197 398.778 16.3333 398.286 15.2045C397.801 14.0758 397.116 13.2197 396.229 12.6364C395.343 12.053 394.305 11.7614 393.116 11.7614C391.926 11.7614 390.888 12.053 390.002 12.6364C389.116 13.2197 388.426 14.0758 387.934 15.2045C387.449 16.3333 387.207 17.7197 387.207 19.3636C387.207 21.0076 387.449 22.3939 387.934 23.5227C388.426 24.6515 389.116 25.5076 390.002 26.0909C390.888 26.6742 391.926 26.9659 393.116 26.9659C394.305 26.9659 395.343 26.6742 396.229 26.0909C397.116 25.5076 397.801 24.6515 398.286 23.5227C398.778 22.3939 399.025 21.0076 399.025 19.3636ZM407.658 31V7.72727H416.84C418.598 7.72727 420.098 8.04167 421.34 8.67045C422.59 9.29167 423.541 10.1742 424.192 11.3182C424.851 12.4545 425.181 13.7917 425.181 15.3295C425.181 16.875 424.848 18.2045 424.181 19.3182C423.514 20.4242 422.548 21.2727 421.283 21.8636C420.026 22.4545 418.503 22.75 416.715 22.75H410.567V18.7955H415.92C416.859 18.7955 417.639 18.6667 418.26 18.4091C418.882 18.1515 419.344 17.7652 419.647 17.25C419.957 16.7348 420.113 16.0947 420.113 15.3295C420.113 14.5568 419.957 13.9053 419.647 13.375C419.344 12.8447 418.878 12.4432 418.249 12.1705C417.628 11.8902 416.844 11.75 415.897 11.75H412.579V31H407.658ZM420.226 20.4091L426.01 31H420.579L414.92 20.4091H420.226ZM428.658 31V7.72727H437.84C439.598 7.72727 441.098 8.04167 442.34 8.67045C443.59 9.29167 444.541 10.1742 445.192 11.3182C445.851 12.4545 446.181 13.7917 446.181 15.3295C446.181 16.875 445.848 18.2045 445.181 19.3182C444.514 20.4242 443.548 21.2727 442.283 21.8636C441.026 22.4545 439.503 22.75 437.715 22.75H431.567V18.7955H436.92C437.859 18.7955 438.639 18.6667 439.26 18.4091C439.882 18.1515 440.344 17.7652 440.647 17.25C440.957 16.7348 441.113 16.0947 441.113 15.3295C441.113 14.5568 440.957 13.9053 440.647 13.375C440.344 12.8447 439.878 12.4432 439.249 12.1705C438.628 11.8902 437.844 11.75 436.897 11.75H433.579V31H428.658ZM441.226 20.4091L447.01 31H441.579L435.92 20.4091H441.226ZM449.658 31V7.72727H465.34V11.7841H454.579V17.3295H464.533V21.3864H454.579V26.9432H465.385V31H449.658ZM468.366 11.7841V7.72727H487.479V11.7841H480.354V31H475.491V11.7841H468.366ZM491.795 31H486.522L494.556 7.72727H500.897L508.92 31H503.647L497.817 13.0455H497.635L491.795 31ZM491.465 21.8523H503.92V25.6932H491.465V21.8523ZM511.721 7.72727H517.789L524.198 23.3636H524.471L530.88 7.72727H536.948V31H532.175V15.8523H531.982L525.959 30.8864H522.709L516.687 15.7955H516.493V31H511.721V7.72727ZM541.002 31V7.72727H556.684V11.7841H545.922V17.3295H555.877V21.3864H545.922V26.9432H556.729V31H541.002ZM580.062 7.72727V31H575.812L565.687 16.3523H565.516V31H560.596V7.72727H564.914L574.959 22.3636H575.164V7.72727H580.062ZM583.241 11.7841V7.72727H602.354V11.7841H595.229V31H590.366V11.7841H583.241ZM605.502 31V7.72727H621.184V11.7841H610.422V17.3295H620.377V21.3864H610.422V26.9432H621.229V31H605.502ZM630.789 7.72727L630.346 24.0227H626.187L625.732 7.72727H630.789ZM628.266 31.2955C627.516 31.2955 626.872 31.0303 626.334 30.5C625.796 29.9621 625.531 29.3182 625.539 28.5682C625.531 27.8258 625.796 27.1894 626.334 26.6591C626.872 26.1288 627.516 25.8636 628.266 25.8636C628.986 25.8636 629.618 26.1288 630.164 26.6591C630.709 27.1894 630.986 27.8258 630.993 28.5682C630.986 29.0682 630.853 29.5265 630.596 29.9432C630.346 30.3523 630.016 30.6818 629.607 30.9318C629.198 31.1742 628.751 31.2955 628.266 31.2955Z" fill="white"/>
<mask id="mask2_207_243" style="mask-type:luminance" maskUnits="userSpaceOnUse" x="633" y="321" width="9" height="19">
<path d="M633.601 321.173H641.934V340H633.601V321.173Z" fill="white"/>
</mask>
<g mask="url(#mask2_207_243)">
<path fill-rule="evenodd" clip-rule="evenodd" d="M632.442 324.007C631.674 323.852 631.201 323.224 631.021 322.125C631.558 322.033 632.113 321.882 632.685 321.675C633.394 321.421 633.158 320.687 632.264 320.93C630.382 321.444 628.785 321.377 627.475 320.733C629.853 320.524 631.803 319.99 633.327 319.127C633.536 319.002 633.608 318.732 633.488 318.52C633.369 318.307 633.103 318.23 632.888 318.345C631.305 319.211 629.064 319.697 626.163 319.804C625.836 319.488 625.533 319.121 625.256 318.701C628.189 318.617 630.907 317.945 633.407 316.685C633.959 316.408 634.016 316.27 634.158 316.925C634.501 318.495 635.341 319.5 636.68 319.942V318.924C635.95 318.564 635.42 317.907 635.213 317.133C634.882 315.896 634.581 315.031 633.061 315.883C631.037 317.022 627.877 317.742 623.582 318.047C625.275 320.978 627.456 322.372 630.127 322.229C630.317 323.979 631.184 324.909 632.726 325.022C632.584 324.695 632.481 324.354 632.427 324.006L632.442 324.007ZM632.526 324.021C632.513 324.019 632.5 324.017 632.486 324.015C632.5 324.017 632.511 324.019 632.526 324.021ZM632.655 324.036C632.643 324.036 632.63 324.034 632.616 324.032C632.63 324.034 632.643 324.034 632.655 324.036Z" fill="white"/>
<path fill-rule="evenodd" clip-rule="evenodd" d="M643.345 324.007C643.291 324.358 643.186 324.697 643.042 325.022C644.597 324.917 645.47 323.986 645.664 322.228C648.335 322.37 650.516 320.976 652.207 318.046C647.914 317.742 644.754 317.02 642.73 315.883C641.21 315.029 640.909 315.896 640.576 317.133C640.371 317.905 639.841 318.563 639.111 318.922V319.942C640.45 319.5 641.29 318.493 641.633 316.924C641.775 316.27 641.832 316.407 642.384 316.685C644.885 317.945 647.602 318.617 650.535 318.701C650.258 319.121 649.953 319.488 649.626 319.804C646.727 319.695 644.484 319.211 642.901 318.345C642.686 318.228 642.42 318.307 642.301 318.519C642.183 318.732 642.254 319.002 642.464 319.126C643.986 319.988 645.938 320.524 648.314 320.731C647.004 321.376 645.409 321.443 643.527 320.93C642.631 320.687 642.397 321.418 643.106 321.675C643.678 321.882 644.232 322.031 644.768 322.125C644.588 323.226 644.115 323.852 643.345 324.005V324.007Z" fill="white"/>
</g>
<mask id="mask3_207_243" style="mask-type:luminance" maskUnits="userSpaceOnUse" x="235" y="319" width="9" height="19">
<path d="M235.601 319.173H243.934V338H235.601V319.173Z" fill="white"/>
</mask>
<g mask="url(#mask3_207_243)">
</g>
<mask id="mask4_207_243" style="mask-type:luminance" maskUnits="userSpaceOnUse" x="238" y="313" width="4" height="12">
<path d="M238.052 313H241.483V324.566H238.052V313Z" fill="white"/>
</mask>
<g mask="url(#mask4_207_243)">
</g>
</svg>
