<svg width="387" height="338" viewBox="0 0 387 338" fill="none" xmlns="http://www.w3.org/2000/svg">
<g filter="url(#filter0_b_109_2)">
<mask id="mask0_109_2" style="mask-type:luminance" maskUnits="userSpaceOnUse" x="135" y="83" width="114" height="255">
<path d="M135.98 83.9697H247.98V336.999H135.98V83.9697Z" fill="white" stroke="white"/>
</mask>
<g mask="url(#mask0_109_2)">
<path fill-rule="evenodd" clip-rule="evenodd" d="M157.443 132.635C154.278 128.414 151.936 123.962 151.035 119.355C149.748 112.999 151.318 107.028 154.278 101.624C161.484 110.554 162.513 122.778 157.443 132.635ZM233.234 101.83C236.116 107.182 237.609 113.076 236.348 119.355C235.447 123.833 233.208 128.208 230.094 132.403C225.204 122.675 226.234 110.682 233.234 101.83ZM178.006 296.878C176.719 286.764 180.348 278.554 186.267 271.194L178.186 263.911C168.098 276.289 163.105 290.624 169.796 308.845C172.498 316.231 179.884 321.686 188.248 323.514V331.543C188.248 334.554 190.693 337.025 193.678 337.025C196.664 337.025 199.134 334.554 199.134 331.543V323.565C205.388 322.253 210.895 318.675 214.653 313.606C215.965 311.881 217.046 309.951 217.895 307.892C225.127 287.047 217.175 270.756 201.94 256.113L206.881 252.15L217.252 243.734C225.642 236.631 234.701 227.933 236.862 217.098C239.513 203.793 230.712 192.058 221.653 183.488L209.042 173.168L203.484 169.205C220.186 158.01 242.91 142.131 247.028 121.543C249.884 107.311 243.27 94.7523 234.083 84.5354C218.925 99.7707 208.322 118.815 222.476 140.896C213.572 149.466 202.197 156.929 193.653 162.616L189.329 159.708L187.811 158.679C180.502 153.712 172.009 147.767 165.009 141.076C179.678 118.48 168.303 99.8994 153.145 84.6641C144.009 94.8295 137.447 107.363 140.278 121.543C144.318 141.694 166.039 157.289 183.77 169.179L183.848 169.23L193.653 175.793L199.855 180.065C209.094 186.576 228.884 201.245 226.156 214.962C224.973 220.958 219.929 226.44 215.656 230.506C210.406 235.499 204.745 239.848 199.109 244.352V192.469L196.664 190.848L189.818 186.267L188.197 185.186V244.378C182.587 239.874 176.822 235.422 171.649 230.506C167.377 226.466 162.359 220.958 161.149 214.988C158.73 202.738 174.197 189.767 184.131 182.458L177.542 178.058L174.506 176.024C161.587 186.01 147.149 200.499 150.469 217.124C153.325 231.561 169.256 243.219 180.399 252.124C192.881 262.701 209.12 274.153 209.583 292.22C209.686 296.208 208.991 300.481 207.292 305.087V305.113C205.542 308.459 202.609 311.032 199.109 312.345V282.8L191.002 275.517L188.223 273.021V312.267C184.208 310.697 180.965 307.455 179.421 303.311C178.778 301.278 178.263 299.194 177.98 296.929L178.006 296.878Z" fill="#23272A" stroke="#DCDCDC"/>
</g>
<mask id="mask1_109_2" style="mask-type:luminance" maskUnits="userSpaceOnUse" x="168" y="0" width="48" height="157">
<path d="M168.923 1H215.041V156.441H168.923V1Z" fill="white" stroke="white"/>
</mask>
<g mask="url(#mask1_109_2)">
<path fill-rule="evenodd" clip-rule="evenodd" d="M203.82 20.7127C203.82 26.323 199.29 30.8781 193.706 30.8781C188.121 30.8781 183.592 26.323 183.592 20.7127C183.592 15.0766 188.121 10.5215 193.706 10.5215C199.29 10.5215 203.82 15.0766 203.82 20.7127ZM199.136 147.125V39.6281C207.32 37.2605 213.291 30.6465 213.291 20.7127C213.291 10.8046 204.515 1.02515 193.706 1.02515C182.897 1.02515 174.121 10.8046 174.121 20.7127C174.121 30.6465 180.092 37.2605 188.25 39.6281V147.125C189.923 148.283 191.621 149.415 193.268 150.547L193.706 150.856C195.533 149.647 197.36 148.411 199.136 147.125Z" fill="#23272A" stroke="#DCDCDC"/>
</g>
<mask id="mask2_109_2" style="mask-type:luminance" maskUnits="userSpaceOnUse" x="0" y="4" width="183" height="134">
<path d="M1 4.91113H182.1V136.676H1V4.91113Z" fill="white" stroke="white"/>
</mask>
<g mask="url(#mask2_109_2)">
<path fill-rule="evenodd" clip-rule="evenodd" d="M120.412 122.059C110.092 119.974 103.735 111.533 101.316 96.7607C108.522 95.5254 115.985 93.4923 123.68 90.7129C133.202 87.2901 130.037 77.4335 118.018 80.7019C92.7204 87.5989 71.2571 86.6982 53.6542 78.0511C85.6174 75.246 111.816 68.0658 132.301 56.4592C135.106 54.7864 136.084 51.1577 134.463 48.3011C132.867 45.4445 129.29 44.415 126.408 45.9592C105.125 57.5915 75.0145 64.1283 36.0255 65.5695C31.6247 61.3232 27.5585 56.382 23.8269 50.7459C63.2534 49.6136 99.7719 40.5805 133.382 23.6466C140.794 19.915 141.566 18.0621 143.47 26.8636C148.077 47.9665 159.375 61.4776 177.364 67.4224V53.7312C167.559 48.893 160.43 40.0658 157.651 29.6687C153.198 13.0437 149.158 1.41132 128.724 12.8635C101.522 28.1761 59.0586 37.8525 1.33423 41.9445C24.0843 81.3452 53.3968 100.081 89.2976 98.1504C91.8454 121.672 103.503 134.18 124.22 135.698C122.316 131.298 120.926 126.717 120.206 122.033L120.412 122.059ZM121.544 122.239C121.364 122.213 121.184 122.187 121.004 122.161C121.184 122.187 121.338 122.213 121.544 122.239ZM123.268 122.445C123.114 122.445 122.934 122.419 122.754 122.393C122.934 122.419 123.114 122.419 123.268 122.445Z" fill="#23272A" stroke="#DCDCDC"/>
</g>
<path fill-rule="evenodd" clip-rule="evenodd" d="M266.948 122.058C266.228 126.768 264.812 131.323 262.882 135.698C283.779 134.283 295.514 121.775 298.114 98.1504C334.014 100.055 363.327 81.3195 386.051 41.9444C328.353 37.8525 285.889 28.1503 258.687 12.8635C238.253 1.38555 234.213 13.0436 229.735 29.6687C226.981 40.04 219.853 48.893 210.047 53.7055V67.4224C228.036 61.4775 239.334 47.9407 243.941 26.8635C245.845 18.062 246.617 19.915 254.029 23.6466C287.639 40.5804 324.158 49.6135 363.584 50.7459C359.853 56.3819 355.761 61.3231 351.36 65.5694C312.397 64.1025 282.261 57.5915 260.978 45.9591C258.095 44.3893 254.518 45.4444 252.922 48.301C251.327 51.1577 252.279 54.7863 255.11 56.4591C275.57 68.04 301.794 75.2459 333.731 78.0253C316.128 86.6981 294.691 87.5989 269.393 80.7018C257.349 77.4334 254.209 87.2643 263.731 90.7129C271.426 93.4923 278.864 95.4996 286.07 96.7607C283.65 111.558 277.294 119.974 266.948 122.033V122.058Z" fill="#23272A"/>
<path d="M264.735 122.393C264.889 122.393 265.044 122.367 265.172 122.342M262.908 122.547C263.114 122.522 263.294 122.522 263.5 122.496M266.948 122.058C266.228 126.768 264.812 131.323 262.882 135.698C283.779 134.283 295.514 121.775 298.114 98.1504C334.014 100.055 363.327 81.3195 386.051 41.9444C328.353 37.8525 285.889 28.1503 258.687 12.8635C238.253 1.38555 234.213 13.0436 229.735 29.6687C226.981 40.04 219.853 48.893 210.047 53.7055V67.4224C228.036 61.4775 239.334 47.9407 243.941 26.8635C245.845 18.062 246.617 19.915 254.029 23.6466C287.639 40.5804 324.158 49.6135 363.584 50.7459C359.853 56.3819 355.761 61.3231 351.36 65.5694C312.397 64.1025 282.261 57.5915 260.978 45.9591C258.095 44.3893 254.518 45.4444 252.922 48.301C251.327 51.1577 252.279 54.7863 255.11 56.4591C275.57 68.04 301.794 75.2459 333.731 78.0253C316.128 86.6981 294.691 87.5989 269.393 80.7018C257.349 77.4334 254.209 87.2643 263.731 90.7129C271.426 93.4923 278.864 95.4996 286.07 96.7607C283.65 111.558 277.294 119.974 266.948 122.033V122.058Z" stroke="#DCDCDC"/>
</g>
<defs>
<filter id="filter0_b_109_2" x="-3.49854" y="-3.47485" width="394.382" height="344.974" filterUnits="userSpaceOnUse" color-interpolation-filters="sRGB">
<feFlood flood-opacity="0" result="BackgroundImageFix"/>
<feGaussianBlur in="BackgroundImageFix" stdDeviation="2"/>
<feComposite in2="SourceAlpha" operator="in" result="effect1_backgroundBlur_109_2"/>
<feBlend mode="normal" in="SourceGraphic" in2="effect1_backgroundBlur_109_2" result="shape"/>
</filter>
</defs>
</svg>
